<svg version="1.1" id="Layer_1" xmlns="http://www.w3.org/2000/svg" xmlns:xlink="http://www.w3.org/1999/xlink" x="0px" y="0px"
	 width="100%" viewBox="0 0 500 500" enable-background="new 0 0 500 500" xml:space="preserve">
<path fill="#000000" opacity="1.000000" stroke="none" 
	d="
M294.000000,501.000000 
	C196.000031,501.000000 98.500046,501.000000 1.000052,501.000000 
	C1.000035,334.333405 1.000035,167.666794 1.000017,1.000142 
	C167.666565,1.000095 334.333130,1.000095 500.999756,1.000047 
	C500.999847,167.666519 500.999847,334.333038 500.999939,500.999786 
	C432.166656,501.000000 363.333344,501.000000 294.000000,501.000000 
M332.645569,235.250275 
	C331.949921,234.869629 331.286194,234.239410 330.553864,234.145813 
	C319.826019,232.774826 311.389404,236.427155 304.894684,245.237396 
	C302.954834,247.868866 301.347015,252.255630 295.833344,250.599411 
	C297.109009,243.141754 295.594543,236.036499 287.433136,234.395248 
	C280.081177,232.916779 272.720215,235.043015 266.852051,241.692703 
	C259.927582,246.882721 255.594330,253.586182 253.839767,262.189606 
	C252.916351,266.717529 245.755936,270.928009 240.362259,270.333984 
	C241.235596,267.318878 241.459198,264.034851 243.042953,261.656616 
	C245.538712,257.908875 248.970413,254.788940 251.967575,251.369644 
	C258.993134,243.354568 265.499786,235.033783 268.678040,224.588593 
	C270.630005,218.173538 268.338959,211.934387 262.800201,209.340805 
	C258.377716,207.269928 251.958801,209.813766 248.441360,215.134430 
	C246.281784,218.401154 243.924255,221.596329 242.231323,225.101685 
	C235.915543,238.178925 229.001343,251.070084 226.368103,265.564026 
	C225.351395,271.160309 224.956100,277.250092 230.039581,281.162262 
	C235.022995,284.997406 240.806442,284.355988 246.163895,281.321960 
	C248.958893,279.739105 251.549393,277.795166 254.256058,275.998505 
	C256.566742,282.054901 263.496368,285.232513 269.988190,283.447388 
	C279.572601,280.811768 286.679199,275.200409 291.253296,266.322418 
	C292.313171,264.265289 293.865448,262.461823 295.191132,260.541595 
	C296.905029,269.116119 292.503143,278.614258 303.737366,282.336334 
	C301.203522,284.472839 299.120941,286.228821 296.976410,287.980713 
	C296.976410,287.980713 296.981995,288.042328 296.278992,288.127563 
	C294.329895,290.766052 291.039185,292.932007 293.022095,297.483002 
	C292.988770,297.822571 293.042145,298.147919 293.584808,299.064941 
	C296.073242,303.483795 299.537262,305.758362 304.911316,306.100586 
	C316.446381,306.835114 322.083313,299.368561 327.374146,291.130219 
	C328.806732,288.899597 329.194550,284.832153 332.860809,286.160126 
	C334.992188,286.932129 336.349213,289.921814 337.961243,291.986572 
	C338.325012,292.452454 338.133911,293.648376 338.480774,293.783630 
	C341.163208,294.829590 343.937225,296.495514 346.639923,296.420654 
	C350.099365,296.324768 350.200745,293.102325 349.731689,290.319427 
	C348.341858,282.073578 343.640686,277.238342 334.390564,276.625031 
	C336.344177,271.991028 338.040070,267.790436 339.875793,263.651855 
	C343.429626,255.639862 347.229584,247.729889 350.488770,239.601685 
	C351.000854,238.324585 349.248047,234.636856 348.475616,234.616638 
	C345.674774,234.543320 342.845490,235.556778 339.396942,236.037430 
	C338.890717,236.335037 338.384491,236.632645 337.300507,237.174149 
	C336.229523,237.089355 335.158569,237.004562 333.901672,236.446655 
	C333.616913,236.279617 333.332123,236.112579 332.645569,235.250275 
M189.599548,172.291580 
	C178.372604,176.107361 167.090012,179.768661 155.935379,183.785248 
	C146.074173,187.336090 136.327103,191.210999 126.580673,195.071716 
	C112.518898,200.641815 98.317993,205.915634 84.530457,212.104523 
	C74.665878,216.532516 68.867569,225.844925 66.496727,235.527939 
	C61.643070,255.351196 65.753700,273.806976 85.526604,285.926788 
	C96.417564,292.602386 108.076591,294.333282 120.423439,291.097931 
	C131.849350,288.103851 140.567017,281.232788 146.673523,271.343140 
	C151.927094,262.834839 156.578415,253.946793 161.275909,245.109650 
	C162.189987,243.390045 162.091171,241.132019 162.459564,239.122330 
	C160.334152,239.261658 158.202545,239.344345 156.087219,239.575806 
	C155.475723,239.642731 154.940948,240.265778 154.319046,240.410431 
	C152.671997,240.793549 150.996521,241.054443 148.265350,241.562454 
	C149.219269,239.647202 149.362198,239.169998 149.650635,238.809097 
	C156.380981,230.387543 163.200073,222.035080 169.796204,213.510010 
	C170.858093,212.137619 170.938950,210.006180 171.473312,208.225616 
	C169.503174,208.104126 167.383301,207.448639 165.588318,207.951904 
	C156.957901,210.371582 148.421631,213.125534 139.831314,215.691849 
	C138.988159,215.943741 138.004547,215.725540 135.738144,215.725540 
	C139.102188,213.095612 141.129654,211.223160 143.421036,209.765564 
	C159.152740,199.758041 174.968796,189.882950 190.684052,179.849869 
	C193.788986,177.867599 196.634903,175.456894 199.462723,173.080124 
	C200.129562,172.519669 200.788147,170.809937 200.493301,170.477295 
	C199.839767,169.739899 198.427139,168.993546 197.594406,169.224701 
	C195.112625,169.913589 192.761307,171.072403 189.599548,172.291580 
M180.488403,232.785614 
	C181.159866,233.489380 181.831329,234.193146 182.514542,234.909225 
	C185.032791,232.811356 187.435822,230.809448 189.838852,228.807541 
	C184.153717,246.648300 175.733536,263.242249 170.438187,281.147034 
	C186.426483,283.855774 191.530502,285.898712 205.298737,281.790833 
	C221.149704,277.061523 226.836670,265.413422 225.754166,251.183670 
	C225.555420,248.571106 223.363007,246.110214 222.085190,243.568085 
	C224.244293,242.236618 226.360291,241.011368 228.394379,239.662567 
	C234.740646,235.454391 236.252838,228.438690 237.712723,221.849976 
	C238.731873,217.250244 231.577072,210.208542 225.584564,209.109360 
	C208.814819,206.033432 193.771744,209.319565 181.064728,221.398865 
	C177.303482,224.974304 177.177536,228.270065 180.488403,232.785614 
M393.646759,236.976608 
	C392.537994,238.955200 391.429199,240.933777 389.955231,243.563995 
	C393.220184,243.822678 395.319824,243.989029 397.418640,244.155319 
	C393.673187,255.653458 387.423798,265.035004 375.896912,271.124481 
	C376.059174,269.040985 375.814667,267.446869 376.344238,266.175018 
	C379.097168,259.563904 382.144470,253.075165 384.886383,246.459732 
	C386.184113,243.328796 387.029114,240.010223 388.079224,236.776657 
	C384.623627,236.204529 381.184021,235.485168 377.707275,235.107971 
	C375.041504,234.818741 373.034760,236.027893 371.940796,238.633774 
	C367.827484,248.431885 363.409912,258.113281 359.657593,268.046661 
	C358.078827,272.226074 358.009277,277.054230 361.989502,280.380920 
	C365.649292,283.439819 369.908813,285.254730 374.711914,282.906281 
	C379.039856,280.790131 383.258789,278.451019 387.525604,276.209869 
	C389.773041,282.213013 396.079437,285.199768 402.218079,283.345032 
	C411.688477,280.483673 417.561249,273.457581 423.631561,266.211853 
	C426.526215,262.756653 424.597961,261.586761 422.928680,259.535492 
	C420.675781,256.767090 419.061432,258.529602 417.243408,260.207214 
	C413.190399,263.947296 409.024475,267.565063 404.904541,271.232635 
	C404.352844,270.848785 403.801147,270.464935 403.249451,270.081085 
	C406.480896,262.661835 409.799896,255.278870 412.901428,247.805695 
	C414.171173,244.746246 416.079041,243.726624 419.380524,243.840759 
	C425.985382,244.069122 428.468903,241.330811 428.615662,234.122864 
	C425.649292,234.122864 422.685974,234.122864 419.360870,234.122864 
	C422.428467,227.132523 425.325836,220.530090 428.813080,212.583481 
	C422.896149,213.125381 417.907745,213.466827 412.963348,214.134415 
	C411.997406,214.264832 410.827087,215.498566 410.393555,216.501236 
	C408.531433,220.807907 406.538177,225.118729 405.328735,229.625565 
	C404.510223,232.675674 402.932159,233.305893 400.366089,232.948639 
	C397.377045,232.532501 395.188019,233.396240 393.646759,236.976608 
M395.377777,211.879211 
	C388.027618,209.828674 383.014130,211.810104 379.400513,218.193756 
	C377.071930,222.307373 377.860657,225.889755 381.377869,228.656113 
	C385.445007,231.854996 391.851410,231.658447 394.210297,229.054504 
	C399.282928,223.454910 399.984741,218.833405 395.377777,211.879211 
z"/>
<path fill="#EB2121" opacity="1.000000" stroke="none" 
	d="
M189.979279,172.169617 
	C192.761307,171.072403 195.112625,169.913589 197.594406,169.224701 
	C198.427139,168.993546 199.839767,169.739899 200.493301,170.477295 
	C200.788147,170.809937 200.129562,172.519669 199.462723,173.080124 
	C196.634903,175.456894 193.788986,177.867599 190.684052,179.849869 
	C174.968796,189.882950 159.152740,199.758041 143.421036,209.765564 
	C141.129654,211.223160 139.102188,213.095612 135.738144,215.725540 
	C138.004547,215.725540 138.988159,215.943741 139.831314,215.691849 
	C148.421631,213.125534 156.957901,210.371582 165.588318,207.951904 
	C167.383301,207.448639 169.503174,208.104126 171.473297,208.225616 
	C170.938950,210.006180 170.858093,212.137619 169.796204,213.510010 
	C163.200073,222.035080 156.380981,230.387543 149.650635,238.809097 
	C149.362198,239.169998 149.219269,239.647202 148.265350,241.562454 
	C150.996521,241.054443 152.671997,240.793549 154.319046,240.410431 
	C154.940948,240.265778 155.475723,239.642731 156.087219,239.575806 
	C158.202545,239.344345 160.334152,239.261658 162.459564,239.122345 
	C162.091171,241.132019 162.189987,243.390045 161.275909,245.109650 
	C156.578415,253.946793 151.927094,262.834839 146.673523,271.343140 
	C140.567017,281.232788 131.849350,288.103851 120.423439,291.097931 
	C108.076591,294.333282 96.417564,292.602386 85.526604,285.926788 
	C65.753700,273.806976 61.643070,255.351196 66.496727,235.527939 
	C68.867569,225.844925 74.665878,216.532516 84.530457,212.104523 
	C98.317993,205.915634 112.518898,200.641815 126.580673,195.071716 
	C136.327103,191.210999 146.074173,187.336090 155.935379,183.785248 
	C167.090012,179.768661 178.372604,176.107361 189.979279,172.169617 
z"/>
<path fill="#E72222" opacity="1.000000" stroke="none" 
	d="
M180.336182,232.449661 
	C177.177536,228.270065 177.303482,224.974304 181.064728,221.398865 
	C193.771744,209.319565 208.814819,206.033432 225.584564,209.109360 
	C231.577072,210.208542 238.731873,217.250244 237.712723,221.849976 
	C236.252838,228.438690 234.740646,235.454391 228.394379,239.662567 
	C226.360291,241.011368 224.244293,242.236618 222.085190,243.568085 
	C223.363007,246.110214 225.555420,248.571106 225.754166,251.183670 
	C226.836670,265.413422 221.149704,277.061523 205.298737,281.790833 
	C191.530502,285.898712 186.426483,283.855774 170.438187,281.147034 
	C175.733536,263.242249 184.153717,246.648300 189.838852,228.807541 
	C187.435822,230.809448 185.032791,232.811356 182.514542,234.909225 
	C181.831329,234.193146 181.159866,233.489380 180.336182,232.449661 
M192.432922,261.994171 
	C191.188416,264.894897 189.943909,267.795624 188.661011,270.785797 
	C200.078415,271.512146 207.144562,266.397369 209.303131,256.218506 
	C209.914932,253.333511 209.158813,251.136948 206.397171,250.188080 
	C199.333740,247.761154 198.053650,248.412674 195.132660,255.382568 
	C194.311127,257.342865 193.615570,259.356018 192.432922,261.994171 
M207.452377,224.860291 
	C205.282928,230.255997 203.113480,235.651703 200.592407,241.921921 
	C203.600220,241.014374 205.878494,240.487106 208.033691,239.644867 
	C213.262329,237.601578 216.438599,233.528259 218.218765,228.396484 
	C218.943085,226.308472 219.964508,222.596085 219.171494,222.046677 
	C217.134918,220.635727 214.116623,220.022614 211.574554,220.212479 
	C210.232040,220.312775 209.064636,222.757172 207.452377,224.860291 
z"/>
<path fill="#E62323" opacity="1.000000" stroke="none" 
	d="
M393.873352,236.673706 
	C395.188019,233.396240 397.377045,232.532501 400.366089,232.948639 
	C402.932159,233.305893 404.510223,232.675674 405.328735,229.625565 
	C406.538177,225.118729 408.531433,220.807907 410.393555,216.501236 
	C410.827087,215.498566 411.997406,214.264832 412.963348,214.134415 
	C417.907745,213.466827 422.896149,213.125381 428.813080,212.583481 
	C425.325836,220.530090 422.428467,227.132523 419.360870,234.122864 
	C422.685974,234.122864 425.649292,234.122864 428.615662,234.122864 
	C428.468903,241.330811 425.985382,244.069122 419.380524,243.840759 
	C416.079041,243.726624 414.171173,244.746246 412.901428,247.805695 
	C409.799896,255.278870 406.480896,262.661835 403.249451,270.081085 
	C403.801147,270.464935 404.352844,270.848785 404.904541,271.232635 
	C409.024475,267.565063 413.190399,263.947296 417.243408,260.207214 
	C419.061432,258.529602 420.675781,256.767090 422.928680,259.535492 
	C424.597961,261.586761 426.526215,262.756653 423.631561,266.211853 
	C417.561249,273.457581 411.688477,280.483673 402.218079,283.345032 
	C396.079437,285.199768 389.773041,282.213013 387.525696,276.210083 
	C383.258789,278.451019 379.039856,280.790131 374.711914,282.906281 
	C369.908813,285.254730 365.649292,283.439819 361.989502,280.380920 
	C358.009277,277.054230 358.078827,272.226074 359.657593,268.046661 
	C363.409912,258.113281 367.827484,248.431885 371.940796,238.633774 
	C373.034760,236.027893 375.041504,234.818741 377.707275,235.107971 
	C381.184021,235.485168 384.623627,236.204529 388.079224,236.776657 
	C387.029114,240.010223 386.184113,243.328796 384.886383,246.459732 
	C382.144470,253.075165 379.097168,259.563904 376.344238,266.175018 
	C375.814667,267.446869 376.059174,269.040985 375.896912,271.124481 
	C387.423798,265.035004 393.673187,255.653458 397.418640,244.155319 
	C395.319824,243.989029 393.220184,243.822678 389.955231,243.563995 
	C391.429199,240.933777 392.537994,238.955200 393.873352,236.673706 
z"/>
<path fill="#E32424" opacity="1.000000" stroke="none" 
	d="
M297.038391,287.984833 
	C299.120941,286.228821 301.203522,284.472839 303.737366,282.336334 
	C292.503143,278.614258 296.905029,269.116119 295.191132,260.541595 
	C293.865448,262.461823 292.313171,264.265289 291.253296,266.322418 
	C286.679199,275.200409 279.572601,280.811768 269.988190,283.447388 
	C263.496368,285.232513 256.566742,282.054901 254.256058,275.998505 
	C251.549393,277.795166 248.958893,279.739105 246.163895,281.321960 
	C240.806442,284.355988 235.022995,284.997406 230.039581,281.162262 
	C224.956100,277.250092 225.351395,271.160309 226.368103,265.564026 
	C229.001343,251.070084 235.915543,238.178925 242.231323,225.101685 
	C243.924255,221.596329 246.281784,218.401154 248.441360,215.134430 
	C251.958801,209.813766 258.377716,207.269928 262.800201,209.340805 
	C268.338959,211.934387 270.630005,218.173538 268.678040,224.588593 
	C265.499786,235.033783 258.993134,243.354568 251.967575,251.369644 
	C248.970413,254.788940 245.538712,257.908875 243.042953,261.656616 
	C241.459198,264.034851 241.235596,267.318878 240.362259,270.333984 
	C245.755936,270.928009 252.916351,266.717529 253.839767,262.189606 
	C255.594330,253.586182 259.927582,246.882721 267.268005,241.657715 
	C267.683929,241.622711 268.001709,242.002060 267.907623,242.336258 
	C265.673004,246.135315 264.237152,250.493423 261.232880,252.863388 
	C256.267395,256.780457 256.437073,261.807739 255.763824,267.173828 
	C254.046555,268.324219 252.546387,269.266693 250.197662,270.742249 
	C252.021027,271.951355 253.528931,272.951263 255.321930,274.091431 
	C256.727814,274.810242 257.848633,275.388763 258.899719,276.123047 
	C258.930695,276.534241 259.031372,276.789764 259.132050,277.045258 
	C259.428833,276.698486 259.725647,276.351715 260.306396,276.195770 
	C262.433563,279.847778 264.372070,283.323761 269.220520,281.444916 
	C271.984406,280.373871 274.786194,279.166718 277.174530,277.464691 
	C278.274841,276.680542 278.424255,274.562012 279.010193,273.031799 
	C279.015594,273.015106 279.049011,273.004150 279.340576,273.074310 
	C281.429565,271.775055 283.227020,270.405609 285.340637,268.990234 
	C286.437408,268.625153 287.218018,268.306030 288.150055,267.683838 
	C288.549774,265.265961 288.798035,263.151184 289.359497,260.933441 
	C296.209503,256.798737 296.344025,256.832611 301.205444,263.152435 
	C299.927673,265.267731 298.805939,267.124756 297.743866,268.882965 
	C300.059784,269.444336 301.286011,269.741608 302.512238,270.038849 
	C301.577118,271.744171 300.642029,273.449493 299.252747,275.983063 
	C300.574585,277.065643 302.054474,279.108521 303.982147,279.705627 
	C310.629242,281.764465 314.464508,275.723694 318.911713,273.808411 
	C321.102997,276.279358 323.007874,278.427368 325.143646,280.835693 
	C319.951904,279.258148 316.293701,286.763336 310.303741,283.314240 
	C309.939484,283.104462 309.106110,283.721985 308.486298,283.941315 
	C304.671051,285.291260 300.854523,286.637421 297.038391,287.984833 
M251.566360,239.079285 
	C257.214935,232.831375 259.720795,224.269058 256.336792,222.079147 
	C251.252365,228.692337 247.673248,235.883209 248.002029,244.845383 
	C249.055527,243.130142 250.109009,241.414917 251.566360,239.079285 
z"/>
<path fill="#EE1F1E" opacity="1.000000" stroke="none" 
	d="
M297.007385,287.982788 
	C300.854523,286.637421 304.671051,285.291260 308.486298,283.941315 
	C309.106110,283.721985 309.939484,283.104462 310.303741,283.314240 
	C316.293701,286.763336 319.951904,279.258148 325.143646,280.835693 
	C323.007874,278.427368 321.102997,276.279358 318.911713,273.808411 
	C314.464508,275.723694 310.629242,281.764465 303.982147,279.705627 
	C302.054474,279.108521 300.574585,277.065643 299.252747,275.983063 
	C300.642029,273.449493 301.577118,271.744171 302.512238,270.038849 
	C301.286011,269.741608 300.059784,269.444336 297.743866,268.882965 
	C298.805939,267.124756 299.927673,265.267731 301.205444,263.152435 
	C296.344025,256.832611 296.209503,256.798737 289.053497,260.980896 
	C287.266235,260.739349 286.098206,260.347382 285.063049,259.666168 
	C285.388885,256.877686 285.581818,254.378479 285.774750,251.879272 
	C285.252625,251.734772 284.730499,251.590256 284.208374,251.445755 
	C283.187500,252.634338 282.166656,253.822937 281.080322,254.575195 
	C281.062134,252.083008 281.109375,250.027130 281.389648,247.814972 
	C281.405365,245.783524 281.188019,243.908340 280.843384,241.686935 
	C280.463074,239.884155 280.210144,238.427612 280.306641,236.802444 
	C289.858459,234.911057 293.212769,238.241562 293.436951,249.441284 
	C292.175415,249.727219 290.893066,250.017868 289.610718,250.308533 
	C289.438202,250.850525 289.265656,251.392532 289.093140,251.934525 
	C291.388794,252.895355 293.604889,254.305756 295.995697,254.728653 
	C302.015137,255.793350 304.078156,250.724442 306.975922,247.012436 
	C306.994232,246.995407 307.028412,246.958878 307.310028,246.781097 
	C309.727814,245.068665 311.864014,243.534027 314.016693,242.023254 
	C314.033203,242.047119 313.999115,242.000610 314.036102,241.678329 
	C314.493561,239.025620 315.430786,238.326477 317.769012,239.644135 
	C318.349640,239.971344 319.885559,238.603500 320.990967,238.007324 
	C320.999573,237.999832 321.014404,237.982666 321.329926,237.846741 
	C323.428558,237.517181 325.211670,237.323563 326.994781,237.129944 
	C326.030396,238.668610 325.237762,240.361359 324.043152,241.693588 
	C323.200134,242.633713 321.684967,242.937042 320.694641,243.786652 
	C318.933838,245.297241 317.128296,246.841248 315.726288,248.666824 
	C312.738190,252.557602 309.996429,256.637573 306.964539,260.906403 
	C307.427063,262.982178 307.882507,266.045197 308.860962,268.930878 
	C309.268890,270.133850 310.690918,271.676270 311.822418,271.833069 
	C316.901184,272.536652 320.078705,270.234497 321.999817,265.009155 
	C321.994507,264.987305 322.036682,265.001648 322.300232,264.887512 
	C323.036133,264.198761 323.508514,263.624207 323.983765,263.015167 
	C323.986664,262.980682 324.055359,262.989227 324.386505,262.888184 
	C325.809692,260.852051 326.901733,258.916992 328.053406,256.759277 
	C328.113007,256.536682 328.262695,256.100708 328.561829,255.969147 
	C331.313477,253.127213 333.976105,251.045197 333.357849,246.259262 
	C333.007324,243.546112 336.404633,240.350708 338.094421,237.361435 
	C338.138519,237.283371 337.955414,237.076874 337.878265,236.930267 
	C338.384491,236.632645 338.890717,236.335037 339.952148,236.362732 
	C341.279694,239.153046 341.395752,242.194916 342.954712,243.968567 
	C346.740021,248.275284 344.306671,250.581741 340.931213,252.840302 
	C340.641510,252.483719 340.418976,252.288803 340.196411,252.093887 
	C340.182556,252.232300 340.107635,252.451538 340.165405,252.495193 
	C340.423553,252.690292 340.719604,252.835312 340.960754,253.391281 
	C340.591705,255.411850 340.632782,257.246582 339.859650,258.624451 
	C338.217590,261.550842 338.504486,267.646515 332.126984,264.017700 
	C331.725281,263.789154 330.356873,264.409729 330.122955,264.938293 
	C329.783691,265.704773 329.708862,267.305695 330.143738,267.586365 
	C334.483917,270.387665 333.504456,274.095886 331.903198,277.440582 
	C335.928894,278.809906 339.578430,280.051270 343.200317,281.283234 
	C342.573608,283.423126 342.185211,284.749237 341.962891,285.508301 
	C344.343506,287.296356 346.288635,288.757324 348.150879,290.156036 
	C345.190918,291.317230 343.273499,292.069397 340.887054,293.005585 
	C340.185425,291.391846 339.431030,289.610443 338.639343,287.845734 
	C337.162079,284.552826 334.611725,283.459839 331.031586,283.448029 
	C327.608704,283.436768 327.294678,285.862152 326.032715,287.985962 
	C324.334167,290.844421 322.037476,293.347473 319.930573,295.841827 
	C319.641968,295.486115 319.420288,295.291687 319.198639,295.097229 
	C319.185364,295.234955 319.111481,295.453033 319.169250,295.496613 
	C319.426636,295.690826 319.721649,295.835144 319.872498,296.308594 
	C313.823639,305.240540 304.350098,306.633484 296.627655,300.106750 
	C295.686951,299.311676 294.340607,298.996582 293.182251,298.459045 
	C293.042145,298.147919 292.988770,297.822571 293.260132,296.947235 
	C294.659454,293.621735 295.820709,290.832031 296.981995,288.042328 
	C296.981995,288.042328 296.976410,287.980713 297.007385,287.982788 
M310.754761,294.967285 
	C313.262238,293.978088 315.769684,292.988892 318.457672,291.928497 
	C316.343353,288.067017 314.388947,284.919403 309.760681,286.587677 
	C304.863342,288.352905 299.558624,295.884888 300.131805,299.796265 
	C302.682312,299.051331 305.308899,298.452789 307.784515,297.472748 
	C308.692749,297.113220 309.243408,295.850433 309.969543,294.960358 
	C309.969543,294.960358 310.010712,294.955231 310.754761,294.967285 
M338.569366,247.353836 
	C338.381744,246.544952 338.194092,245.736053 338.006470,244.927170 
	C337.569092,245.169327 337.131714,245.411499 336.694366,245.653671 
	C337.213898,246.327011 337.733459,247.000351 338.569366,247.353836 
M325.787720,273.546692 
	C326.419586,273.783051 327.051453,274.019409 327.683289,274.255768 
	C327.755371,273.956055 327.827423,273.656311 327.899506,273.356598 
	C327.231812,273.274353 326.564148,273.192108 325.787720,273.546692 
M320.068054,286.720490 
	C320.584351,286.507263 321.100647,286.294006 321.616943,286.080780 
	C321.306946,285.807220 320.996979,285.533661 320.686951,285.260101 
	C320.348053,285.689484 320.009155,286.118896 320.068054,286.720490 
M302.521637,276.493164 
	C302.521637,276.493164 302.487030,276.502991 302.521637,276.493164 
z"/>
<path fill="#E32424" opacity="1.000000" stroke="none" 
	d="
M320.982391,238.014801 
	C319.885559,238.603500 318.349640,239.971344 317.769012,239.644135 
	C315.430786,238.326477 314.493561,239.025620 314.036560,241.678024 
	C314.000000,242.000000 314.000183,241.999390 314.000183,241.999390 
	C311.864014,243.534027 309.727814,245.068665 307.284058,246.755753 
	C306.976440,246.908188 306.957611,247.029465 306.957611,247.029465 
	C304.078156,250.724442 302.015137,255.793350 295.995697,254.728653 
	C293.604889,254.305756 291.388794,252.895355 289.093140,251.934525 
	C289.265656,251.392532 289.438202,250.850525 289.610718,250.308533 
	C290.893066,250.017868 292.175415,249.727219 293.436951,249.441284 
	C293.212769,238.241562 289.858459,234.911057 279.976746,236.889557 
	C275.532166,238.764206 271.766937,240.383133 268.001709,242.002045 
	C268.001709,242.002060 267.683929,241.622711 267.525574,241.432587 
	C272.720215,235.043015 280.081177,232.916779 287.433136,234.395248 
	C295.594543,236.036499 297.109009,243.141754 295.833344,250.599411 
	C301.347015,252.255630 302.954834,247.868866 304.894684,245.237396 
	C311.389404,236.427155 319.826019,232.774826 330.553864,234.145813 
	C331.286194,234.239410 331.949921,234.869629 332.813354,235.649750 
	C332.981171,236.049240 332.920593,236.156296 332.651520,236.141388 
	C329.876770,237.823807 329.847290,238.050385 332.144928,241.931976 
	C332.819519,239.978012 333.320557,238.526825 333.889801,237.039612 
	C333.958008,237.003571 334.087585,236.919769 334.087585,236.919769 
	C335.158569,237.004562 336.229523,237.089355 337.589386,237.052216 
	C337.955414,237.076874 338.138519,237.283371 338.094421,237.361435 
	C336.404633,240.350708 333.007324,243.546112 333.357849,246.259262 
	C333.976105,251.045197 331.313477,253.127213 328.470856,255.591064 
	C328.520050,254.306351 329.026520,253.290833 329.385315,252.225571 
	C330.271820,249.593155 332.699310,246.609818 328.920258,244.534348 
	C325.714905,242.773956 322.869873,244.398605 320.612549,246.838669 
	C318.841187,248.753387 316.924072,250.659592 315.674988,252.905151 
	C312.953247,257.798126 309.365448,262.593872 311.914307,270.112366 
	C315.512604,268.300385 318.758850,266.665680 322.005096,265.030975 
	C320.078705,270.234497 316.901184,272.536652 311.822418,271.833069 
	C310.690918,271.676270 309.268890,270.133850 308.860962,268.930878 
	C307.882507,266.045197 307.427063,262.982178 306.964539,260.906403 
	C309.996429,256.637573 312.738190,252.557602 315.726288,248.666824 
	C317.128296,246.841248 318.933838,245.297241 320.694641,243.786652 
	C321.684967,242.937042 323.200134,242.633713 324.043152,241.693588 
	C325.237762,240.361359 326.030396,238.668610 326.994781,237.129944 
	C325.211670,237.323563 323.428558,237.517181 321.261414,237.681946 
	C320.597595,237.522476 320.317871,237.391846 320.038116,237.261200 
	C320.352875,237.512405 320.667633,237.763611 320.982391,238.014801 
z"/>
<path fill="#E32424" opacity="1.000000" stroke="none" 
	d="
M319.997528,296.003082 
	C322.037476,293.347473 324.334167,290.844421 326.032715,287.985962 
	C327.294678,285.862152 327.608704,283.436768 331.031586,283.448029 
	C334.611725,283.459839 337.162079,284.552826 338.639343,287.845734 
	C339.431030,289.610443 340.185425,291.391846 340.887054,293.005585 
	C343.273499,292.069397 345.190918,291.317230 348.150879,290.156036 
	C346.288635,288.757324 344.343506,287.296356 341.962891,285.508301 
	C342.185211,284.749237 342.573608,283.423126 343.200317,281.283234 
	C339.578430,280.051270 335.928894,278.809906 331.903198,277.440582 
	C333.504456,274.095886 334.483917,270.387665 330.143738,267.586365 
	C329.708862,267.305695 329.783691,265.704773 330.122955,264.938293 
	C330.356873,264.409729 331.725281,263.789154 332.126984,264.017700 
	C338.504486,267.646515 338.217590,261.550842 339.859650,258.624451 
	C340.632782,257.246582 340.591705,255.411850 340.959778,253.392075 
	C341.000000,253.000000 340.998352,253.001968 340.998352,253.001968 
	C344.306671,250.581741 346.740021,248.275284 342.954712,243.968567 
	C341.395752,242.194916 341.279694,239.153046 340.267151,236.424118 
	C342.845490,235.556778 345.674774,234.543320 348.475616,234.616638 
	C349.248047,234.636856 351.000854,238.324585 350.488770,239.601685 
	C347.229584,247.729889 343.429626,255.639862 339.875793,263.651855 
	C338.040070,267.790436 336.344177,271.991028 334.390564,276.625031 
	C343.640686,277.238342 348.341858,282.073578 349.731689,290.319427 
	C350.200745,293.102325 350.099365,296.324768 346.639923,296.420654 
	C343.937225,296.495514 341.163208,294.829590 338.480774,293.783630 
	C338.133911,293.648376 338.325012,292.452454 337.961243,291.986572 
	C336.349213,289.921814 334.992188,286.932129 332.860809,286.160126 
	C329.194550,284.832153 328.806732,288.899597 327.374146,291.130219 
	C322.083313,299.368561 316.446381,306.835114 304.911316,306.100586 
	C299.537262,305.758362 296.073242,303.483795 293.383545,298.761993 
	C294.340607,298.996582 295.686951,299.311676 296.627655,300.106750 
	C304.350098,306.633484 313.823639,305.240540 319.870972,296.309845 
	C320.000000,296.000000 319.997528,296.003082 319.997528,296.003082 
M346.440491,242.498703 
	C346.247314,242.347977 346.054138,242.197250 345.860931,242.046524 
	C345.785492,242.286835 345.710083,242.527130 345.634644,242.767441 
	C345.875854,242.768707 346.117096,242.769974 346.440491,242.498703 
z"/>
<path fill="#E32424" opacity="1.000000" stroke="none" 
	d="
M395.784241,211.969894 
	C399.984741,218.833405 399.282928,223.454910 394.210297,229.054504 
	C391.851410,231.658447 385.445007,231.854996 381.377869,228.656113 
	C377.860657,225.889755 377.071930,222.307373 379.400513,218.193756 
	C383.014130,211.810104 388.027618,209.828674 395.784241,211.969894 
z"/>
<path fill="#E32424" opacity="1.000000" stroke="none" 
	d="
M296.630493,288.084961 
	C295.820709,290.832031 294.659454,293.621735 293.325775,296.706543 
	C291.039185,292.932007 294.329895,290.766052 296.630493,288.084961 
z"/>
<path fill="#E32424" opacity="1.000000" stroke="none" 
	d="
M333.014282,235.997406 
	C333.332123,236.112579 333.616913,236.279617 333.994629,236.683212 
	C334.087585,236.919769 333.958008,237.003571 333.742126,236.884674 
	C333.325134,236.561874 333.123230,236.358719 332.920593,236.156296 
	C332.920593,236.156296 332.981171,236.049240 333.014282,235.997406 
z"/>
<path fill="#000000" opacity="1.000000" stroke="none" 
	d="
M192.647568,261.669556 
	C193.615570,259.356018 194.311127,257.342865 195.132660,255.382568 
	C198.053650,248.412674 199.333740,247.761154 206.397171,250.188080 
	C209.158813,251.136948 209.914932,253.333511 209.303131,256.218506 
	C207.144562,266.397369 200.078415,271.512146 188.661011,270.785797 
	C189.943909,267.795624 191.188416,264.894897 192.647568,261.669556 
z"/>
<path fill="#000000" opacity="1.000000" stroke="none" 
	d="
M207.635269,224.501755 
	C209.064636,222.757172 210.232040,220.312775 211.574554,220.212479 
	C214.116623,220.022614 217.134918,220.635727 219.171494,222.046677 
	C219.964508,222.596085 218.943085,226.308472 218.218765,228.396484 
	C216.438599,233.528259 213.262329,237.601578 208.033691,239.644867 
	C205.878494,240.487106 203.600220,241.014374 200.592407,241.921921 
	C203.113480,235.651703 205.282928,230.255997 207.635269,224.501755 
z"/>
<path fill="#EB2121" opacity="1.000000" stroke="none" 
	d="
M267.907623,242.336243 
	C271.766937,240.383133 275.532166,238.764206 279.627319,237.058182 
	C280.210144,238.427612 280.463074,239.884155 280.524536,241.781616 
	C278.924896,243.827148 277.516754,245.431732 275.977417,247.335297 
	C274.931427,248.779800 274.016602,249.925323 272.783569,251.194977 
	C270.292145,255.052689 267.951050,258.707153 266.117310,262.600616 
	C265.824524,263.222229 267.806915,264.915375 268.799011,266.280426 
	C268.911987,266.713043 268.826019,266.921783 268.552673,267.462433 
	C269.047363,269.602234 267.736542,273.508087 272.391968,270.925232 
	C274.449921,270.281647 276.154602,269.608856 278.204895,268.863495 
	C281.560974,267.980530 284.252533,266.932465 282.961426,262.534607 
	C283.039307,261.439575 283.097565,260.710510 283.452026,259.979004 
	C284.142151,259.969513 284.536163,259.962463 284.930145,259.955444 
	C286.098206,260.347382 287.266235,260.739349 288.740295,261.083862 
	C288.798035,263.151184 288.549774,265.265961 287.896393,267.603088 
	C286.669006,268.229004 285.846741,268.632599 285.024475,269.036163 
	C283.227020,270.405609 281.429565,271.775055 279.223145,272.857361 
	C278.356873,272.348236 277.899597,272.126221 277.442291,271.904236 
	C277.367371,272.102478 277.292450,272.300720 277.217529,272.498962 
	C277.813293,272.682159 278.409027,272.865326 279.004822,273.048523 
	C278.424255,274.562012 278.274841,276.680542 277.174530,277.464691 
	C274.786194,279.166718 271.984406,280.373871 269.220520,281.444916 
	C264.372070,283.323761 262.433563,279.847778 260.042969,276.187134 
	C259.320221,275.980865 259.144806,275.974091 258.969421,275.967316 
	C257.848633,275.388763 256.727814,274.810242 255.418945,273.764099 
	C255.480881,271.186340 255.730896,269.076111 255.980911,266.965912 
	C256.437073,261.807739 256.267395,256.780457 261.232880,252.863388 
	C264.237152,250.493423 265.673004,246.135315 267.907623,242.336243 
M269.233276,248.337402 
	C269.468475,248.218536 269.703674,248.099670 269.938904,247.980804 
	C269.851013,247.861221 269.763092,247.741653 269.675201,247.622101 
	C269.472748,247.787796 269.270294,247.953491 269.233276,248.337402 
M276.477875,275.506775 
	C276.477875,275.506775 276.512695,275.496887 276.477875,275.506775 
z"/>
<path fill="#000000" opacity="1.000000" stroke="none" 
	d="
M251.364441,239.389481 
	C250.109009,241.414917 249.055527,243.130142 248.002029,244.845383 
	C247.673248,235.883209 251.252365,228.692337 256.336792,222.079147 
	C259.720795,224.269058 257.214935,232.831375 251.364441,239.389481 
z"/>
<path fill="#EE1F1E" opacity="1.000000" stroke="none" 
	d="
M255.763824,267.173828 
	C255.730896,269.076111 255.480881,271.186340 255.133850,273.623871 
	C253.528931,272.951263 252.021027,271.951355 250.197662,270.742249 
	C252.546387,269.266693 254.046555,268.324219 255.763824,267.173828 
z"/>
<path fill="#EE1F1E" opacity="1.000000" stroke="none" 
	d="
M285.340637,268.990234 
	C285.846741,268.632599 286.669006,268.229004 287.744934,267.906189 
	C287.218018,268.306030 286.437408,268.625153 285.340637,268.990234 
z"/>
<path fill="#EE1F1E" opacity="1.000000" stroke="none" 
	d="
M258.899719,276.123047 
	C259.144806,275.974091 259.320221,275.980865 259.759033,275.996277 
	C259.725647,276.351715 259.428833,276.698486 259.132050,277.045258 
	C259.031372,276.789764 258.930695,276.534241 258.899719,276.123047 
z"/>
<path fill="#000000" opacity="1.000000" stroke="none" 
	d="
M321.999817,265.009155 
	C318.758850,266.665680 315.512604,268.300385 311.914307,270.112366 
	C309.365448,262.593872 312.953247,257.798126 315.674988,252.905151 
	C316.924072,250.659592 318.841187,248.753387 320.612549,246.838669 
	C322.869873,244.398605 325.714905,242.773956 328.920258,244.534348 
	C332.699310,246.609818 330.271820,249.593155 329.385315,252.225571 
	C329.026520,253.290833 328.520050,254.306351 328.171753,255.722610 
	C328.262695,256.100708 328.113007,256.536682 327.734497,256.877228 
	C326.255798,259.141602 325.155579,261.065399 324.055359,262.989227 
	C324.055359,262.989227 323.986664,262.980682 323.658752,263.038696 
	C322.899475,263.731659 322.468079,264.366638 322.036682,265.001648 
	C322.036682,265.001648 321.994507,264.987305 321.999817,265.009155 
z"/>
<path fill="#000000" opacity="1.000000" stroke="none" 
	d="
M268.602631,267.073883 
	C268.826019,266.921783 268.911987,266.713043 268.882996,265.915100 
	C270.304230,260.611969 271.703003,255.841415 273.101776,251.070862 
	C274.016602,249.925323 274.931427,248.779800 276.317902,247.309601 
	C278.245270,247.313705 279.700928,247.642487 281.156616,247.971268 
	C281.109375,250.027130 281.062134,252.083008 281.015564,254.929047 
	C281.729431,257.139954 282.442657,258.560730 283.155853,259.981476 
	C283.097565,260.710510 283.039307,261.439575 282.665466,262.677429 
	C280.853027,265.102844 279.356140,267.019470 277.859283,268.936096 
	C276.154602,269.608856 274.449921,270.281647 272.229736,270.632202 
	C270.677032,269.231262 269.639832,268.152588 268.602631,267.073883 
z"/>
<path fill="#E32424" opacity="1.000000" stroke="none" 
	d="
M309.957184,294.999664 
	C309.243408,295.850433 308.692749,297.113220 307.784515,297.472748 
	C305.308899,298.452789 302.682312,299.051331 300.131805,299.796265 
	C299.558624,295.884888 304.863342,288.352905 309.760681,286.587677 
	C314.388947,284.919403 316.343353,288.067017 318.457672,291.928497 
	C315.769684,292.988892 313.262238,293.978088 310.514008,294.643646 
	C311.270203,292.445587 312.267120,290.571136 313.564148,288.132507 
	C311.149231,289.125519 309.424652,289.435455 308.270538,290.416534 
	C307.004761,291.492554 306.265137,293.187500 305.296234,294.612762 
	C306.849884,294.741730 308.403534,294.870697 309.957184,294.999664 
z"/>
<path fill="#E32424" opacity="1.000000" stroke="none" 
	d="
M283.452026,259.979004 
	C282.442657,258.560730 281.729431,257.139954 281.080994,255.365356 
	C282.166656,253.822937 283.187500,252.634338 284.208374,251.445755 
	C284.730499,251.590256 285.252625,251.734772 285.774750,251.879272 
	C285.581818,254.378479 285.388885,256.877686 285.063049,259.666168 
	C284.536163,259.962463 284.142151,259.969513 283.452026,259.979004 
z"/>
<path fill="#E32424" opacity="1.000000" stroke="none" 
	d="
M281.389648,247.814972 
	C279.700928,247.642487 278.245270,247.313705 276.449097,247.010620 
	C277.516754,245.431732 278.924896,243.827148 280.651855,242.127869 
	C281.188019,243.908340 281.405365,245.783524 281.389648,247.814972 
z"/>
<path fill="#E32424" opacity="1.000000" stroke="none" 
	d="
M324.386505,262.888184 
	C325.155579,261.065399 326.255798,259.141602 327.674896,257.099854 
	C326.901733,258.916992 325.809692,260.852051 324.386505,262.888184 
z"/>
<path fill="#E32424" opacity="1.000000" stroke="none" 
	d="
M338.411194,247.513763 
	C337.733459,247.000351 337.213898,246.327011 336.694366,245.653671 
	C337.131714,245.411499 337.569092,245.169327 338.006470,244.927170 
	C338.194092,245.736053 338.381744,246.544952 338.411194,247.513763 
z"/>
<path fill="#E32424" opacity="1.000000" stroke="none" 
	d="
M325.842102,273.328278 
	C326.564148,273.192108 327.231812,273.274353 327.899475,273.356598 
	C327.827423,273.656311 327.755371,273.956055 327.683289,274.255768 
	C327.051453,274.019409 326.419586,273.783051 325.842102,273.328278 
z"/>
<path fill="#E32424" opacity="1.000000" stroke="none" 
	d="
M319.869141,286.634399 
	C320.009155,286.118896 320.348053,285.689484 320.686951,285.260101 
	C320.996979,285.533661 321.306946,285.807220 321.616943,286.080780 
	C321.100647,286.294006 320.584351,286.507263 319.869141,286.634399 
z"/>
<path fill="#E32424" opacity="1.000000" stroke="none" 
	d="
M320.001526,295.998749 
	C319.721649,295.835144 319.426636,295.690826 319.169250,295.496613 
	C319.111481,295.453033 319.185364,295.234955 319.198639,295.097229 
	C319.420288,295.291687 319.641968,295.486115 319.930573,295.841827 
	C319.997528,296.003082 320.000000,296.000000 320.001526,295.998749 
z"/>
<path fill="#E32424" opacity="1.000000" stroke="none" 
	d="
M341.000977,252.999207 
	C340.719604,252.835312 340.423553,252.690292 340.165405,252.495193 
	C340.107635,252.451538 340.182556,252.232300 340.196411,252.093887 
	C340.418976,252.288803 340.641510,252.483719 340.931213,252.840302 
	C340.998352,253.001968 341.000000,253.000000 341.000977,252.999207 
z"/>
<path fill="#E32424" opacity="1.000000" stroke="none" 
	d="
M322.300201,264.887512 
	C322.468079,264.366638 322.899475,263.731659 323.655884,263.073181 
	C323.508514,263.624207 323.036133,264.198761 322.300201,264.887512 
z"/>
<path fill="#E32424" opacity="1.000000" stroke="none" 
	d="
M313.999573,242.000305 
	C313.999115,242.000610 314.033203,242.047119 314.016693,242.023254 
	C314.000183,241.999390 314.000000,242.000000 313.999573,242.000305 
z"/>
<path fill="#E32424" opacity="1.000000" stroke="none" 
	d="
M302.504333,276.498077 
	C302.487030,276.502991 302.521637,276.493164 302.504333,276.498077 
z"/>
<path fill="#EE1F1E" opacity="1.000000" stroke="none" 
	d="
M332.651520,236.141388 
	C333.123230,236.358719 333.325134,236.561874 333.673950,236.920700 
	C333.320557,238.526825 332.819519,239.978012 332.144928,241.931976 
	C329.847290,238.050385 329.876770,237.823807 332.651520,236.141388 
z"/>
<path fill="#EE1F1E" opacity="1.000000" stroke="none" 
	d="
M320.990967,238.007324 
	C320.667633,237.763611 320.352875,237.512405 320.038116,237.261200 
	C320.317871,237.391846 320.597595,237.522476 320.945862,237.817886 
	C321.014404,237.982666 320.999573,237.999832 320.990967,238.007324 
z"/>
<path fill="#EE1F1E" opacity="1.000000" stroke="none" 
	d="
M306.975922,247.012436 
	C306.957611,247.029465 306.976440,246.908188 307.002441,246.933533 
	C307.028412,246.958878 306.994232,246.995407 306.975922,247.012436 
z"/>
<path fill="#EE1F1E" opacity="1.000000" stroke="none" 
	d="
M346.399414,242.634979 
	C346.117096,242.769974 345.875854,242.768707 345.634644,242.767441 
	C345.710083,242.527130 345.785492,242.286835 345.860931,242.046509 
	C346.054138,242.197250 346.247314,242.347977 346.399414,242.634979 
z"/>
<path fill="#E32424" opacity="1.000000" stroke="none" 
	d="
M272.783569,251.194977 
	C271.703003,255.841415 270.304230,260.611969 268.821472,265.747864 
	C267.806915,264.915375 265.824524,263.222229 266.117310,262.600616 
	C267.951050,258.707153 270.292145,255.052689 272.783569,251.194977 
z"/>
<path fill="#E32424" opacity="1.000000" stroke="none" 
	d="
M278.204895,268.863495 
	C279.356140,267.019470 280.853027,265.102844 282.645874,263.043427 
	C284.252533,266.932465 281.560974,267.980530 278.204895,268.863495 
z"/>
<path fill="#E32424" opacity="1.000000" stroke="none" 
	d="
M268.552673,267.462433 
	C269.639832,268.152588 270.677032,269.231262 271.876465,270.602997 
	C267.736542,273.508087 269.047363,269.602234 268.552673,267.462433 
z"/>
<path fill="#E32424" opacity="1.000000" stroke="none" 
	d="
M269.150543,248.228302 
	C269.270294,247.953491 269.472748,247.787796 269.675201,247.622101 
	C269.763092,247.741653 269.851013,247.861221 269.938904,247.980804 
	C269.703674,248.099670 269.468475,248.218536 269.150543,248.228302 
z"/>
<path fill="#EE1F1E" opacity="1.000000" stroke="none" 
	d="
M279.010193,273.031799 
	C278.409027,272.865326 277.813293,272.682159 277.217529,272.498962 
	C277.292450,272.300720 277.367371,272.102478 277.442291,271.904236 
	C277.899597,272.126221 278.356873,272.348236 278.931580,272.787170 
	C279.049011,273.004150 279.015594,273.015106 279.010193,273.031799 
z"/>
<path fill="#E32424" opacity="1.000000" stroke="none" 
	d="
M276.495300,275.501831 
	C276.512695,275.496887 276.477875,275.506775 276.495300,275.501831 
z"/>
<path fill="#000000" opacity="1.000000" stroke="none" 
	d="
M309.963379,294.980011 
	C308.403534,294.870697 306.849884,294.741730 305.296234,294.612762 
	C306.265137,293.187500 307.004761,291.492554 308.270538,290.416534 
	C309.424652,289.435455 311.149231,289.125519 313.564148,288.132507 
	C312.267120,290.571136 311.270203,292.445587 310.141968,294.637634 
	C310.010712,294.955231 309.969543,294.960358 309.963379,294.980011 
z"/>
</svg>